<svg xmlns="http://www.w3.org/2000/svg" width="0" height="0" style="position:absolute" aria-hidden="true"><defs>
  <symbol id="sign-house" viewBox="0 0 24 24"><title>house</title><path d="M12 2L23 11H19V22H5V11H1Z" fill="currentColor"/></symbol>
  <symbol id="sign-machine" viewBox="0 0 24 24"><title>machine</title><path d="M23 10L23 14L20 14L18 17L20 19L17 22L16 19L12 20L12 23L7 22L9 19L6 17L3 19L1 15L4 14L4 10L1 9L3 5L6 7L9 5L7 2L12 1L12 4L16 5L17 2L20 5L18 7L20 10ZM12 8a4 4 0 1 1 0 8a4 4 0 1 1 0 -8z" fill="currentColor" fill-rule="evenodd"/></symbol>
  <symbol id="sign-sensor" viewBox="0 0 24 24"><title>sensor</title><path d="M11 2h2v6h-2zM4 8h16v14H4zM7 12h10v4H7z" fill="currentColor" fill-rule="evenodd"/></symbol>
  <symbol id="sign-pito" viewBox="0 0 24 24"><title>pito</title><path d="M0 10h11v4H0zM11 8h6v8h-6zM16 5L24 12L16 19Z" fill="currentColor"/></symbol>
  <symbol id="sign-dido" viewBox="0 0 24 24"><title>dido</title><path d="M11.50 1.63L3.27 6.38L4.27 8.12L12.50 3.37ZM2.77 7.25L2.77 16.75L4.77 16.75L4.77 7.25ZM3.27 17.62L11.50 22.37L12.50 20.63L4.27 15.88ZM12.50 22.37L20.73 17.62L19.73 15.88L11.50 20.63ZM21.23 16.75L21.23 7.25L19.23 7.25L19.23 16.75ZM20.73 6.38L12.50 1.63L11.50 3.37L19.73 8.12ZM3.77 6.25L0.00 6.25L0.00 8.25L3.77 8.25ZM20.23 17.75L24.00 17.75L24.00 15.75L20.23 15.75ZM12.00 -0.10L9.75 1.20L9.75 3.80L12.00 5.10L14.25 3.80L14.25 1.20ZM3.77 4.65L1.52 5.95L1.52 8.55L3.77 9.85L6.02 8.55L6.02 5.95ZM3.77 14.15L1.52 15.45L1.52 18.05L3.77 19.35L6.02 18.05L6.02 15.45ZM12.00 18.90L9.75 20.20L9.75 22.80L12.00 24.10L14.25 22.80L14.25 20.20ZM20.23 14.15L17.98 15.45L17.98 18.05L20.23 19.35L22.48 18.05L22.48 15.45ZM20.23 4.65L17.98 5.95L17.98 8.55L20.23 9.85L22.48 8.55L22.48 5.95Z" fill="currentColor"/></symbol>
  <symbol id="sign-rho-open" viewBox="0 0 24 24"><title>rho-open</title><path d="M19.19 15.51A8 8 0 1 1 14.21 4.31" fill="none" stroke="currentColor" stroke-width="5" stroke-linecap="butt"/></symbol>
  <symbol id="sign-rho-closed" viewBox="0 0 24 24"><title>rho-closed</title><circle cx="12" cy="12" r="8" fill="none" stroke="currentColor" stroke-width="5"/></symbol>
  <symbol id="sign-cube-key" viewBox="0 0 24 24"><title>cube-key</title><path id="face-top" d="M12 2L22 7L12 12L2 7Z" fill="currentColor"/><path id="face-left" d="M2 7L12 12V22L2 17Z" fill="currentColor" fill-opacity="0.72"/><path id="face-right" d="M22 7L12 12V22L22 17Z" fill="currentColor" fill-opacity="0.46"/></symbol>
  <symbol id="sign-cell" viewBox="0 0 24 24"><title>cell</title><path d="M3 8L10 2L19 6L21 16L14 22L5 18ZM7 16L13 19L18 15L17 8L11 5L6 9Z" fill="currentColor" fill-rule="evenodd"/></symbol>
  <symbol id="sign-plan-frame" viewBox="0 0 24 24"><title>plan-frame</title><path d="M2 2h20v20H2zM6 6h12v12H6zM9 9h6v6H9z" fill="currentColor" fill-rule="evenodd"/></symbol>
  <symbol id="sign-pulse" viewBox="0 0 24 24"><title>pulse</title><path d="M2 9h3v6H2zM8 3h3v18H8zM14 7h3v10h-3zM20 11h3v2h-3z" fill="currentColor"/></symbol>
  <symbol id="sign-planet" viewBox="0 0 24 24"><title>planet</title><path d="M9.18 9.61L12.43 8.54L15.23 11.09L14.70 14.69L11.43 15.69L8.71 13.17ZM7.87 13.06L4.58 14.78L1.69 12.97L2.11 9.35L5.48 7.61L8.34 9.50ZM4.90 15.55L8.20 13.82L10.92 16.34L10.44 19.83L7.28 20.75L4.47 19.04ZM11.74 16.52L15.01 15.52L17.80 18.08L17.25 21.60L13.97 22.53L11.25 20.00ZM16.07 11.30L19.45 10.22L22.30 12.82L21.71 16.46L18.33 17.46L15.54 14.90ZM13.47 4.23L16.83 3.07L19.70 5.66L19.14 9.37L15.76 10.45L12.96 7.89ZM12.12 7.73L8.86 8.80L6.00 6.91L6.46 3.24L9.83 1.53L12.63 4.06Z" fill="currentColor"/></symbol>
  <symbol id="sign-prov-live" viewBox="0 0 24 24"><title>prov-live</title><path d="M12 3a9 9 0 1 1 0 18a9 9 0 1 1 0 -18z" fill="currentColor"/></symbol>
  <symbol id="sign-prov-partial" viewBox="0 0 24 24"><title>prov-partial</title><path d="M12 3a9 9 0 1 1 0 18a9 9 0 1 1 0 -18zM12 6a6 6 0 1 1 0 12a6 6 0 1 1 0 -12zM12 6a6 6 0 0 0 0 12z" fill="currentColor" fill-rule="evenodd"/></symbol>
  <symbol id="sign-prov-model" viewBox="0 0 24 24"><title>prov-model</title><path d="M12 3a2.5 2.5 0 1 1 0 5a2.5 2.5 0 1 1 0 -5zM17.63 6.25a2.5 2.5 0 1 1 0 5a2.5 2.5 0 1 1 0 -5zM17.63 12.75a2.5 2.5 0 1 1 0 5a2.5 2.5 0 1 1 0 -5zM12 16a2.5 2.5 0 1 1 0 5a2.5 2.5 0 1 1 0 -5zM6.37 12.75a2.5 2.5 0 1 1 0 5a2.5 2.5 0 1 1 0 -5zM6.37 6.25a2.5 2.5 0 1 1 0 5a2.5 2.5 0 1 1 0 -5z" fill="currentColor"/></symbol>
  <symbol id="sign-prov-cached" viewBox="0 0 24 24"><title>prov-cached</title><path d="M12 3a9 9 0 1 1 0 18a9 9 0 1 1 0 -18zM12 6a6 6 0 1 1 0 12a6 6 0 1 1 0 -12zM9 9h6v6H9z" fill="currentColor" fill-rule="evenodd"/></symbol>
  <symbol id="sign-prov-example" viewBox="0 0 24 24"><title>prov-example</title><path d="M12 3a9 9 0 1 1 0 18a9 9 0 1 1 0 -18zM12 6a6 6 0 1 1 0 12a6 6 0 1 1 0 -12z" fill="currentColor" fill-rule="evenodd"/></symbol>
  <symbol id="sign-facility" viewBox="0 0 24 24"><title>facility</title><path d="M2 8h20v5H2zM4 13h4v9H4zM16 13h4v9h-4z" fill="currentColor"/></symbol>
  <symbol id="sign-design" viewBox="0 0 24 24"><title>design</title><path d="M8 2h14v3H8zM5 7h14v3H5zM2 12h16v10H2z" fill="currentColor"/></symbol>
  <symbol id="sign-network" viewBox="0 0 24 24"><title>network</title><path d="M10.5 5.5h3v13h-3zM10.5 12h9v3h-9zM4.5 12h9v3h-9zM12 1a4 4 0 1 1 0 8a4 4 0 1 1 0-8zM4 15a4 4 0 1 1 0 8a4 4 0 1 1 0-8zM20 15a4 4 0 1 1 0 8a4 4 0 1 1 0-8z" fill="currentColor"/></symbol>
<symbol id="pix-air" viewBox="0 0 15 11"><title>air</title><g fill="currentColor" shape-rendering="crispEdges"><rect x="3" y="0" width="1" height="1"/><rect x="11" y="0" width="1" height="1"/><rect x="1" y="2" width="1" height="1"/><rect x="2" y="2" width="1" height="1"/><rect x="3" y="2" width="1" height="1"/><rect x="4" y="2" width="1" height="1"/><rect x="6" y="2" width="1" height="1"/><rect x="7" y="2" width="1" height="1"/><rect x="8" y="2" width="1" height="1"/><rect x="11" y="2" width="1" height="1"/><rect x="12" y="2" width="1" height="1"/><rect x="0" y="4" width="1" height="1"/><rect x="1" y="4" width="1" height="1"/><rect x="3" y="4" width="1" height="1"/><rect x="4" y="4" width="1" height="1"/><rect x="5" y="4" width="1" height="1"/><rect x="6" y="4" width="1" height="1"/><rect x="9" y="4" width="1" height="1"/><rect x="10" y="4" width="1" height="1"/><rect x="11" y="4" width="1" height="1"/><rect x="12" y="4" width="1" height="1"/><rect x="13" y="4" width="1" height="1"/><rect x="2" y="6" width="1" height="1"/><rect x="3" y="6" width="1" height="1"/><rect x="4" y="6" width="1" height="1"/><rect x="6" y="6" width="1" height="1"/><rect x="7" y="6" width="1" height="1"/><rect x="8" y="6" width="1" height="1"/><rect x="9" y="6" width="1" height="1"/><rect x="10" y="6" width="1" height="1"/><rect x="13" y="6" width="1" height="1"/><rect x="14" y="6" width="1" height="1"/><rect x="1" y="8" width="1" height="1"/><rect x="7" y="8" width="1" height="1"/><rect x="13" y="8" width="1" height="1"/><rect x="4" y="10" width="1" height="1"/><rect x="10" y="10" width="1" height="1"/></g></symbol>
<symbol id="pix-heat" viewBox="0 0 15 11"><title>heat</title><g fill="currentColor" shape-rendering="crispEdges"><rect x="7" y="0" width="1" height="1"/><rect x="2" y="1" width="1" height="1"/><rect x="7" y="1" width="1" height="1"/><rect x="12" y="1" width="1" height="1"/><rect x="3" y="2" width="1" height="1"/><rect x="11" y="2" width="1" height="1"/><rect x="5" y="3" width="1" height="1"/><rect x="6" y="3" width="1" height="1"/><rect x="7" y="3" width="1" height="1"/><rect x="4" y="4" width="1" height="1"/><rect x="5" y="4" width="1" height="1"/><rect x="6" y="4" width="1" height="1"/><rect x="7" y="4" width="1" height="1"/><rect x="8" y="4" width="1" height="1"/><rect x="0" y="5" width="1" height="1"/><rect x="1" y="5" width="1" height="1"/><rect x="4" y="5" width="1" height="1"/><rect x="5" y="5" width="1" height="1"/><rect x="6" y="5" width="1" height="1"/><rect x="7" y="5" width="1" height="1"/><rect x="8" y="5" width="1" height="1"/><rect x="11" y="5" width="1" height="1"/><rect x="12" y="5" width="1" height="1"/><rect x="4" y="6" width="1" height="1"/><rect x="5" y="6" width="1" height="1"/><rect x="6" y="6" width="1" height="1"/><rect x="7" y="6" width="1" height="1"/><rect x="8" y="6" width="1" height="1"/><rect x="5" y="7" width="1" height="1"/><rect x="6" y="7" width="1" height="1"/><rect x="7" y="7" width="1" height="1"/><rect x="3" y="8" width="1" height="1"/><rect x="11" y="8" width="1" height="1"/><rect x="2" y="9" width="1" height="1"/><rect x="7" y="9" width="1" height="1"/><rect x="12" y="9" width="1" height="1"/><rect x="7" y="10" width="1" height="1"/></g></symbol>
<symbol id="pix-land" viewBox="0 0 15 11"><title>land</title><g fill="currentColor" shape-rendering="crispEdges"><rect x="9" y="1" width="1" height="1"/><rect x="10" y="1" width="1" height="1"/><rect x="3" y="2" width="1" height="1"/><rect x="4" y="2" width="1" height="1"/><rect x="9" y="2" width="1" height="1"/><rect x="10" y="2" width="1" height="1"/><rect x="3" y="3" width="1" height="1"/><rect x="4" y="3" width="1" height="1"/><rect x="9" y="3" width="1" height="1"/><rect x="10" y="3" width="1" height="1"/><rect x="0" y="4" width="1" height="1"/><rect x="1" y="4" width="1" height="1"/><rect x="3" y="4" width="1" height="1"/><rect x="4" y="4" width="1" height="1"/><rect x="7" y="4" width="1" height="1"/><rect x="8" y="4" width="1" height="1"/><rect x="9" y="4" width="1" height="1"/><rect x="10" y="4" width="1" height="1"/><rect x="11" y="4" width="1" height="1"/><rect x="13" y="4" width="1" height="1"/><rect x="14" y="4" width="1" height="1"/><rect x="0" y="5" width="1" height="1"/><rect x="1" y="5" width="1" height="1"/><rect x="3" y="5" width="1" height="1"/><rect x="4" y="5" width="1" height="1"/><rect x="7" y="5" width="1" height="1"/><rect x="8" y="5" width="1" height="1"/><rect x="9" y="5" width="1" height="1"/><rect x="10" y="5" width="1" height="1"/><rect x="11" y="5" width="1" height="1"/><rect x="13" y="5" width="1" height="1"/><rect x="14" y="5" width="1" height="1"/><rect x="0" y="6" width="1" height="1"/><rect x="1" y="6" width="1" height="1"/><rect x="3" y="6" width="1" height="1"/><rect x="4" y="6" width="1" height="1"/><rect x="7" y="6" width="1" height="1"/><rect x="8" y="6" width="1" height="1"/><rect x="9" y="6" width="1" height="1"/><rect x="10" y="6" width="1" height="1"/><rect x="11" y="6" width="1" height="1"/><rect x="13" y="6" width="1" height="1"/><rect x="14" y="6" width="1" height="1"/><rect x="0" y="7" width="1" height="1"/><rect x="1" y="7" width="1" height="1"/><rect x="3" y="7" width="1" height="1"/><rect x="4" y="7" width="1" height="1"/><rect x="7" y="7" width="1" height="1"/><rect x="8" y="7" width="1" height="1"/><rect x="9" y="7" width="1" height="1"/><rect x="10" y="7" width="1" height="1"/><rect x="11" y="7" width="1" height="1"/><rect x="13" y="7" width="1" height="1"/><rect x="14" y="7" width="1" height="1"/><rect x="0" y="8" width="1" height="1"/><rect x="1" y="8" width="1" height="1"/><rect x="2" y="8" width="1" height="1"/><rect x="3" y="8" width="1" height="1"/><rect x="4" y="8" width="1" height="1"/><rect x="5" y="8" width="1" height="1"/><rect x="6" y="8" width="1" height="1"/><rect x="7" y="8" width="1" height="1"/><rect x="8" y="8" width="1" height="1"/><rect x="9" y="8" width="1" height="1"/><rect x="10" y="8" width="1" height="1"/><rect x="11" y="8" width="1" height="1"/><rect x="12" y="8" width="1" height="1"/><rect x="13" y="8" width="1" height="1"/><rect x="14" y="8" width="1" height="1"/></g></symbol>
<symbol id="pix-coast" viewBox="0 0 15 11"><title>coast</title><g fill="currentColor" shape-rendering="crispEdges"><rect x="0" y="1" width="1" height="1"/><rect x="1" y="1" width="1" height="1"/><rect x="2" y="1" width="1" height="1"/><rect x="3" y="1" width="1" height="1"/><rect x="4" y="1" width="1" height="1"/><rect x="0" y="2" width="1" height="1"/><rect x="1" y="2" width="1" height="1"/><rect x="2" y="2" width="1" height="1"/><rect x="3" y="2" width="1" height="1"/><rect x="4" y="2" width="1" height="1"/><rect x="5" y="2" width="1" height="1"/><rect x="6" y="2" width="1" height="1"/><rect x="0" y="3" width="1" height="1"/><rect x="1" y="3" width="1" height="1"/><rect x="2" y="3" width="1" height="1"/><rect x="3" y="3" width="1" height="1"/><rect x="4" y="3" width="1" height="1"/><rect x="5" y="3" width="1" height="1"/><rect x="6" y="3" width="1" height="1"/><rect x="7" y="3" width="1" height="1"/><rect x="8" y="3" width="1" height="1"/><rect x="0" y="4" width="1" height="1"/><rect x="1" y="4" width="1" height="1"/><rect x="2" y="4" width="1" height="1"/><rect x="3" y="4" width="1" height="1"/><rect x="4" y="4" width="1" height="1"/><rect x="5" y="4" width="1" height="1"/><rect x="6" y="4" width="1" height="1"/><rect x="7" y="4" width="1" height="1"/><rect x="8" y="4" width="1" height="1"/><rect x="9" y="4" width="1" height="1"/><rect x="10" y="4" width="1" height="1"/><rect x="0" y="6" width="1" height="1"/><rect x="1" y="6" width="1" height="1"/><rect x="4" y="6" width="1" height="1"/><rect x="5" y="6" width="1" height="1"/><rect x="8" y="6" width="1" height="1"/><rect x="9" y="6" width="1" height="1"/><rect x="12" y="6" width="1" height="1"/><rect x="13" y="6" width="1" height="1"/><rect x="2" y="7" width="1" height="1"/><rect x="3" y="7" width="1" height="1"/><rect x="6" y="7" width="1" height="1"/><rect x="7" y="7" width="1" height="1"/><rect x="10" y="7" width="1" height="1"/><rect x="11" y="7" width="1" height="1"/><rect x="14" y="7" width="1" height="1"/><rect x="0" y="8" width="1" height="1"/><rect x="1" y="8" width="1" height="1"/><rect x="4" y="8" width="1" height="1"/><rect x="5" y="8" width="1" height="1"/><rect x="8" y="8" width="1" height="1"/><rect x="9" y="8" width="1" height="1"/><rect x="12" y="8" width="1" height="1"/><rect x="13" y="8" width="1" height="1"/><rect x="2" y="9" width="1" height="1"/><rect x="3" y="9" width="1" height="1"/><rect x="6" y="9" width="1" height="1"/><rect x="7" y="9" width="1" height="1"/><rect x="10" y="9" width="1" height="1"/><rect x="11" y="9" width="1" height="1"/><rect x="14" y="9" width="1" height="1"/><rect x="0" y="10" width="1" height="1"/><rect x="1" y="10" width="1" height="1"/><rect x="4" y="10" width="1" height="1"/><rect x="5" y="10" width="1" height="1"/><rect x="8" y="10" width="1" height="1"/><rect x="9" y="10" width="1" height="1"/><rect x="12" y="10" width="1" height="1"/><rect x="13" y="10" width="1" height="1"/></g></symbol>
</defs></svg>
